<svg xmlns="http://www.w3.org/2000/svg" xmlns:xlink="http://www.w3.org/1999/xlink" width="500" zoomAndPan="magnify" viewBox="0 0 375 374.999991" height="500" preserveAspectRatio="xMidYMid meet" version="1.0"><defs><g/><clipPath id="e503baa20c"><path d="M 121.6875 78.519531 L 247 78.519531 L 247 228.519531 L 121.6875 228.519531 Z M 121.6875 78.519531 " clip-rule="nonzero"/></clipPath></defs><g clip-path="url(#e503baa20c)"><path fill="#ffde59" d="M 229.882812 153.09375 C 243.820312 141.058594 249.621094 125.679688 243.761719 107.4375 C 238.15625 89.992188 225.386719 80.816406 207.574219 78.519531 L 121.800781 78.519531 L 121.800781 95.183594 L 188.675781 95.183594 L 188.675781 166.441406 C 166.550781 144.257812 144.65625 122.308594 122.769531 100.355469 C 122.550781 100.484375 122.332031 100.617188 122.113281 100.746094 L 122.113281 211.679688 L 121.800781 211.679688 L 121.800781 228.414062 L 122.144531 228.414062 L 122.144531 228.519531 L 138.609375 228.519531 L 138.609375 228.457031 L 141.355469 228.457031 C 162 228.457031 182.648438 228.429688 203.292969 228.46875 C 209.324219 228.480469 215.085938 227.34375 220.664062 225.0625 C 243.671875 215.65625 253.203125 186.023438 239.710938 165.160156 C 236.910156 160.832031 233.179688 157.101562 229.882812 153.09375 Z M 229.222656 189.210938 C 228.019531 200.394531 219.816406 209.457031 208.691406 211.382812 C 205.058594 212.011719 201.265625 211.8125 197.542969 211.820312 C 178.695312 211.84375 159.839844 211.8125 140.992188 211.804688 C 140.292969 211.804688 139.589844 211.804688 138.746094 211.804688 L 138.746094 140.574219 C 160.765625 162.636719 182.679688 184.597656 204.59375 206.550781 C 204.839844 206.398438 205.089844 206.242188 205.34375 206.09375 L 205.34375 161.863281 C 208.5625 161.75 211.417969 162.613281 214.136719 163.804688 C 224.210938 168.203125 230.355469 178.632812 229.222656 189.210938 Z M 225.851562 132.707031 C 221.832031 139.964844 212.882812 145.300781 205.417969 144.890625 L 205.417969 95.121094 C 213.808594 95.667969 220.398438 99.265625 224.929688 106.09375 C 230.625 114.671875 230.859375 123.679688 225.851562 132.707031 Z M 225.851562 132.707031 " fill-opacity="1" fill-rule="nonzero"/></g><g fill="#ffde59" fill-opacity="1"><g transform="translate(65.168844, 262.85322)"><g><path d="M 16.515625 0 L 20.578125 0 L 20.578125 -21.234375 L 16.515625 -21.234375 L 16.515625 -7.0625 L 6.6875 -21.234375 L 2.65625 -21.234375 L 2.65625 0 L 6.6875 0 L 6.6875 -14.203125 Z M 16.515625 0 "/></g></g></g><g fill="#ffde59" fill-opacity="1"><g transform="translate(88.396932, 262.85322)"><g><path d="M 6.6875 -3.15625 L 6.6875 -9.109375 L 14.265625 -9.109375 L 13.609375 -12.328125 L 6.6875 -12.328125 L 6.6875 -18.046875 L 15.953125 -18.046875 L 15.328125 -21.234375 L 2.65625 -21.234375 L 2.65625 0 L 17.515625 0 L 16.859375 -3.15625 Z M 6.6875 -3.15625 "/></g></g></g><g fill="#ffde59" fill-opacity="1"><g transform="translate(106.536071, 262.85322)"><g><path d="M 17.296875 0 L 21.390625 0 L 21.390625 -21.234375 L 18.921875 -21.234375 L 12.390625 -11.421875 L 5.21875 -21.234375 L 2.65625 -21.234375 L 2.65625 0 L 6.6875 0 L 6.6875 -12.953125 L 11.765625 -6.4375 L 13.328125 -6.65625 L 17.296875 -12.234375 Z M 17.296875 0 "/></g></g></g><g fill="#ffde59" fill-opacity="1"><g transform="translate(130.575891, 262.85322)"><g><path d="M 2.375 -7.71875 C 2.375 -6.195312 2.726562 -4.820312 3.4375 -3.59375 C 4.144531 -2.363281 5.148438 -1.398438 6.453125 -0.703125 C 7.765625 -0.00390625 9.285156 0.34375 11.015625 0.34375 C 12.765625 0.34375 14.304688 -0.00390625 15.640625 -0.703125 C 16.972656 -1.398438 18.003906 -2.359375 18.734375 -3.578125 C 19.460938 -4.796875 19.828125 -6.175781 19.828125 -7.71875 L 19.828125 -21.234375 L 15.734375 -21.234375 L 15.734375 -8.015625 C 15.734375 -6.378906 15.3125 -5.128906 14.46875 -4.265625 C 13.625 -3.398438 12.492188 -2.96875 11.078125 -2.96875 C 9.660156 -2.96875 8.53125 -3.390625 7.6875 -4.234375 C 6.851562 -5.078125 6.4375 -6.335938 6.4375 -8.015625 L 6.4375 -21.234375 L 2.34375 -21.234375 Z M 2.375 -7.71875 "/></g></g></g><g fill="#ffde59" fill-opacity="1"><g transform="translate(152.742477, 262.85322)"><g/></g></g><g fill="#ffde59" fill-opacity="1"><g transform="translate(159.767096, 262.85322)"><g><path d="M 11.359375 0 C 13.648438 0 15.472656 -0.554688 16.828125 -1.671875 C 18.179688 -2.785156 18.859375 -4.3125 18.859375 -6.25 C 18.859375 -8.613281 17.765625 -10.367188 15.578125 -11.515625 C 17.097656 -12.703125 17.859375 -13.960938 17.859375 -15.296875 C 17.859375 -17.335938 17.242188 -18.835938 16.015625 -19.796875 C 14.785156 -20.753906 13.078125 -21.234375 10.890625 -21.234375 L 2.65625 -21.234375 L 2.65625 0 Z M 10.296875 -17.859375 C 11.378906 -17.859375 12.195312 -17.660156 12.75 -17.265625 C 13.300781 -16.867188 13.578125 -16.191406 13.578125 -15.234375 C 13.578125 -14.359375 13.222656 -13.695312 12.515625 -13.25 C 11.804688 -12.800781 10.859375 -12.578125 9.671875 -12.578125 L 6.6875 -12.578125 L 6.6875 -17.859375 Z M 11.328125 -9.296875 C 12.347656 -9.296875 13.15625 -9.023438 13.75 -8.484375 C 14.34375 -7.953125 14.640625 -7.195312 14.640625 -6.21875 C 14.640625 -5.300781 14.316406 -4.59375 13.671875 -4.09375 C 13.023438 -3.59375 12.148438 -3.34375 11.046875 -3.34375 L 6.6875 -3.34375 L 6.6875 -9.296875 Z M 11.328125 -9.296875 "/></g></g></g><g fill="#ffde59" fill-opacity="1"><g transform="translate(179.404821, 262.85322)"><g><path d="M 6.6875 -3.15625 L 6.6875 -9.109375 L 14.265625 -9.109375 L 13.609375 -12.328125 L 6.6875 -12.328125 L 6.6875 -18.046875 L 15.953125 -18.046875 L 15.328125 -21.234375 L 2.65625 -21.234375 L 2.65625 0 L 17.515625 0 L 16.859375 -3.15625 Z M 6.6875 -3.15625 "/></g></g></g><g fill="#ffde59" fill-opacity="1"><g transform="translate(197.54396, 262.85322)"><g><path d="M 4.375 0 L 6.25 -5 L 14.296875 -5 L 16.203125 0.3125 L 20.265625 -0.25 L 12.015625 -21.234375 L 8.578125 -21.234375 L 0.3125 0 Z M 10.203125 -15.671875 L 13.046875 -8.265625 L 7.4375 -8.265625 Z M 10.203125 -15.671875 "/></g></g></g><g fill="#ffde59" fill-opacity="1"><g transform="translate(218.118297, 262.85322)"><g><path d="M 1.46875 -1.40625 C 2.175781 -0.96875 3.179688 -0.554688 4.484375 -0.171875 C 5.785156 0.210938 6.875 0.40625 7.75 0.40625 C 9.40625 0.40625 10.832031 0.15625 12.03125 -0.34375 C 13.226562 -0.84375 14.132812 -1.53125 14.75 -2.40625 C 15.363281 -3.28125 15.671875 -4.289062 15.671875 -5.4375 C 15.671875 -6.457031 15.425781 -7.34375 14.9375 -8.09375 C 14.445312 -8.851562 13.835938 -9.5 13.109375 -10.03125 C 12.378906 -10.5625 11.398438 -11.179688 10.171875 -11.890625 L 9.265625 -12.421875 L 8.265625 -12.984375 C 7.210938 -13.609375 6.453125 -14.125 5.984375 -14.53125 C 5.515625 -14.9375 5.28125 -15.441406 5.28125 -16.046875 C 5.28125 -16.753906 5.578125 -17.289062 6.171875 -17.65625 C 6.765625 -18.019531 7.523438 -18.203125 8.453125 -18.203125 C 9.265625 -18.203125 10.019531 -18.085938 10.71875 -17.859375 C 11.414062 -17.628906 12.191406 -17.304688 13.046875 -16.890625 L 14.390625 -20.140625 C 12.179688 -21.203125 10.179688 -21.734375 8.390625 -21.734375 C 6.878906 -21.734375 5.578125 -21.488281 4.484375 -21 C 3.390625 -20.507812 2.550781 -19.832031 1.96875 -18.96875 C 1.382812 -18.101562 1.09375 -17.128906 1.09375 -16.046875 C 1.09375 -15.023438 1.390625 -14.101562 1.984375 -13.28125 C 2.578125 -12.457031 3.285156 -11.742188 4.109375 -11.140625 C 4.929688 -10.535156 6.039062 -9.816406 7.4375 -8.984375 L 8.359375 -8.421875 C 9.421875 -7.847656 10.207031 -7.347656 10.71875 -6.921875 C 11.226562 -6.492188 11.484375 -6.019531 11.484375 -5.5 C 11.484375 -4.75 11.160156 -4.175781 10.515625 -3.78125 C 9.867188 -3.382812 8.925781 -3.1875 7.6875 -3.1875 C 6.875 -3.1875 5.976562 -3.335938 5 -3.640625 C 4.019531 -3.941406 3.144531 -4.289062 2.375 -4.6875 Z M 1.46875 -1.40625 "/></g></g></g><g fill="#ffde59" fill-opacity="1"><g transform="translate(234.571526, 262.85322)"><g><path d="M 2.65625 -21.234375 L 2.65625 0 L 6.6875 0 L 6.6875 -21.234375 Z M 2.65625 -21.234375 "/></g></g></g><g fill="#ffde59" fill-opacity="1"><g transform="translate(243.906473, 262.85322)"><g><path d="M 1.46875 -1.40625 C 2.175781 -0.96875 3.179688 -0.554688 4.484375 -0.171875 C 5.785156 0.210938 6.875 0.40625 7.75 0.40625 C 9.40625 0.40625 10.832031 0.15625 12.03125 -0.34375 C 13.226562 -0.84375 14.132812 -1.53125 14.75 -2.40625 C 15.363281 -3.28125 15.671875 -4.289062 15.671875 -5.4375 C 15.671875 -6.457031 15.425781 -7.34375 14.9375 -8.09375 C 14.445312 -8.851562 13.835938 -9.5 13.109375 -10.03125 C 12.378906 -10.5625 11.398438 -11.179688 10.171875 -11.890625 L 9.265625 -12.421875 L 8.265625 -12.984375 C 7.210938 -13.609375 6.453125 -14.125 5.984375 -14.53125 C 5.515625 -14.9375 5.28125 -15.441406 5.28125 -16.046875 C 5.28125 -16.753906 5.578125 -17.289062 6.171875 -17.65625 C 6.765625 -18.019531 7.523438 -18.203125 8.453125 -18.203125 C 9.265625 -18.203125 10.019531 -18.085938 10.71875 -17.859375 C 11.414062 -17.628906 12.191406 -17.304688 13.046875 -16.890625 L 14.390625 -20.140625 C 12.179688 -21.203125 10.179688 -21.734375 8.390625 -21.734375 C 6.878906 -21.734375 5.578125 -21.488281 4.484375 -21 C 3.390625 -20.507812 2.550781 -19.832031 1.96875 -18.96875 C 1.382812 -18.101562 1.09375 -17.128906 1.09375 -16.046875 C 1.09375 -15.023438 1.390625 -14.101562 1.984375 -13.28125 C 2.578125 -12.457031 3.285156 -11.742188 4.109375 -11.140625 C 4.929688 -10.535156 6.039062 -9.816406 7.4375 -8.984375 L 8.359375 -8.421875 C 9.421875 -7.847656 10.207031 -7.347656 10.71875 -6.921875 C 11.226562 -6.492188 11.484375 -6.019531 11.484375 -5.5 C 11.484375 -4.75 11.160156 -4.175781 10.515625 -3.78125 C 9.867188 -3.382812 8.925781 -3.1875 7.6875 -3.1875 C 6.875 -3.1875 5.976562 -3.335938 5 -3.640625 C 4.019531 -3.941406 3.144531 -4.289062 2.375 -4.6875 Z M 1.46875 -1.40625 "/></g></g></g><g fill="#ffde59" fill-opacity="1"><g transform="translate(260.359692, 262.85322)"><g><path d="M 18.734375 0 L 14.421875 -15.484375 L 10.109375 0 L 6.6875 0 L 0.3125 -20.984375 L 4.375 -21.546875 L 8.484375 -5.5625 L 12.453125 -21.234375 L 16.515625 -21.234375 L 20.546875 -5.5625 L 24.5 -21.234375 L 28.5625 -21.234375 L 22.171875 0 Z M 18.734375 0 "/></g></g></g><g fill="#ffde59" fill-opacity="1"><g transform="translate(289.238682, 262.85322)"><g><path d="M 4.375 0 L 6.25 -5 L 14.296875 -5 L 16.203125 0.3125 L 20.265625 -0.25 L 12.015625 -21.234375 L 8.578125 -21.234375 L 0.3125 0 Z M 10.203125 -15.671875 L 13.046875 -8.265625 L 7.4375 -8.265625 Z M 10.203125 -15.671875 "/></g></g></g></svg>